<?xml version="1.0" standalone="no"?>
<!DOCTYPE svg PUBLIC "-//W3C//DTD SVG 20010904//EN"
 "http://www.w3.org/TR/2001/REC-SVG-20010904/DTD/svg10.dtd">
<svg version="1.0" xmlns="http://www.w3.org/2000/svg"
 width="512.000000pt" height="512.000000pt" viewBox="0 0 512.000000 512.000000"
 preserveAspectRatio="xMidYMid meet">

<g transform="translate(0.000000,512.000000) scale(0.100000,-0.100000)"
fill="#000000" stroke="none">
<path d="M4104 3791 c-23 -10 -52 -34 -65 -52 l-24 -34 -5 -645 c-3 -355 -9
-653 -14 -663 -24 -49 72 -47 -1966 -47 -2099 0 -1942 5 -1996 -66 l-29 -37 0
-192 0 -192 29 -37 c48 -64 65 -67 347 -64 l252 3 14 54 c50 196 241 366 441
390 264 33 521 -139 585 -390 l14 -54 987 -3 c784 -2 987 0 990 10 3 7 12 39
22 72 35 117 141 245 252 304 86 46 165 65 263 64 245 -1 461 -181 514 -425
l6 -28 149 3 c132 3 152 5 176 24 58 43 69 68 72 167 l4 92 -79 1 c-90 0 -165
29 -240 90 -100 82 -117 210 -42 314 49 68 94 84 232 85 l118 0 -3 180 -3 180
-160 400 c-217 542 -187 515 -574 515 -199 0 -231 -3 -267 -19z m596 -156 c34
-31 42 -61 26 -100 -8 -18 -23 -38 -34 -44 -12 -6 -77 -11 -152 -11 -126 0
-132 -1 -155 -25 l-25 -24 0 -226 0 -226 25 -24 24 -25 281 0 282 0 29 -29
c36 -37 38 -79 5 -118 l-24 -28 -271 -3 c-184 -2 -271 0 -271 8 0 5 -13 10
-28 10 -42 0 -128 47 -162 88 -55 66 -62 114 -58 380 3 221 5 240 25 278 27
51 90 108 134 122 62 19 73 20 200 19 111 -2 130 -4 149 -22z m-395 -989 c18
-8 38 -23 44 -34 6 -12 11 -69 11 -127 0 -104 -1 -107 -29 -136 -37 -37 -82
-39 -116 -5 -30 30 -38 74 -34 175 5 90 27 127 87 140 1 1 18 -5 37 -13z"/>
<path d="M1490 3570 c-240 -23 -306 -43 -647 -203 -272 -128 -303 -139 -417
-146 l-100 -6 -21 -92 c-18 -74 -29 -101 -59 -138 -38 -45 -38 -47 -32 -108 4
-35 10 -68 14 -74 4 -6 76 -45 159 -87 112 -55 163 -76 192 -76 l38 0 5 65 c7
85 44 159 108 219 71 66 126 89 230 94 70 3 95 0 142 -18 71 -26 160 -105 193
-170 19 -38 45 -141 45 -182 0 -5 270 -8 600 -8 330 0 600 3 600 8 0 41 26
144 45 182 33 65 122 144 193 170 74 28 202 25 274 -7 105 -47 189 -160 205
-273 l8 -55 76 -3 c111 -4 110 -5 107 176 l-3 147 -65 32 c-89 43 -259 99
-373 123 -139 28 -277 40 -476 40 -225 0 -203 -9 -469 207 -207 167 -325 205
-572 183z"/>
<path d="M955 2855 c-5 -2 -22 -6 -37 -9 -33 -8 -94 -59 -112 -95 -53 -105 8
-237 124 -272 78 -24 179 22 214 96 27 57 31 100 12 149 -31 81 -139 152 -201
131z"/>
<path d="M2846 2846 c-80 -30 -145 -127 -133 -200 14 -88 65 -145 149 -167 58
-16 113 -2 164 43 48 42 67 83 67 143 0 57 -18 98 -60 136 -55 51 -123 68
-187 45z"/>
<path d="M4900 2350 c-25 -25 -25 -31 0 -63 42 -53 174 -89 208 -55 7 7 12 33
12 58 0 68 -17 80 -118 80 -69 0 -85 -3 -102 -20z"/>
<path d="M1077 2030 c-277 -70 -368 -407 -164 -608 129 -127 310 -144 457 -44
189 129 219 374 64 541 -69 75 -150 113 -249 117 -38 2 -87 -1 -108 -6z"/>
<path d="M4105 2026 c-108 -34 -195 -111 -242 -211 -36 -79 -38 -190 -4 -278
28 -70 114 -162 182 -195 210 -101 456 17 515 248 26 102 7 202 -59 298 -78
116 -260 180 -392 138z"/>
</g>
</svg>
